<svg xmlns="http://www.w3.org/2000/svg" viewBox="0 0 322.41 59.76" fill="#fff" stroke="#fff"><title>Syscoding.cn</title><g id="图层_2" data-name="图层 2"><g id="图层_1-2" data-name="图层 1"><path d="M58.18,14.18a12.57,12.57,0,0,1-4.58,1.08c-1.27,0-1.9-.26-1.9-.79,0-.33.7-.53,2.12-.57a8.5,8.5,0,0,0,3.06-.51,4.58,4.58,0,0,0,2.74-4.25,6.76,6.76,0,0,0-.8-3Q56.53,2,47.66,2A35.2,35.2,0,0,0,37.44,3.56a21.68,21.68,0,0,0-8.57,4.76q-3.45,3.19-3.45,5.94,0,4.17,8.28,6.12L42.19,22a21.2,21.2,0,0,1,7.63,2.59,6.4,6.4,0,0,1,3.32,5.76,11.45,11.45,0,0,1-.51,3.24q-2.3,7.79-11.88,11.88A46.43,46.43,0,0,1,21.89,49a44.38,44.38,0,0,1-5.4-.29,24.2,24.2,0,0,0,6.05,2.23c.19.05.28.15.28.29,0,.43-.5.65-1.51.65-2,0-4.41-1.18-7.34-3.53Q8,47.38,5,45a14.54,14.54,0,0,1-3.46-4.46A11.58,11.58,0,0,1,0,35.21a7.59,7.59,0,0,1,.94-4q2.16-3.83,5.47-3.82,2.52,0,2.95,4.25,1,8.2,1.37,9.36a13.55,13.55,0,0,0,3.67,6,31.43,31.43,0,0,0,6.55.64,39.72,39.72,0,0,0,15.27-3.09q7.49-3.1,10.8-8.79a7.78,7.78,0,0,0,1.36-4q0-3.37-6-5.25L29.74,23.69a13.75,13.75,0,0,1-6.23-3.1,6.58,6.58,0,0,1-2.34-5q0-4.32,5.4-8.64a29.81,29.81,0,0,1,10-5.14A39.2,39.2,0,0,1,48.28,0a23.35,23.35,0,0,1,9.46,1.66C61,3.14,62.57,5.32,62.57,8.17S61.1,13,58.18,14.18ZM11.81,46.3Q7.62,41.68,6.48,33.7c-.43-3-.84-4.54-1.22-4.54a2,2,0,0,0-1.08.32,3.31,3.31,0,0,0-1,1.41,6.6,6.6,0,0,0-.51,2.81,13.09,13.09,0,0,0,3.89,9.5A12.62,12.62,0,0,0,11.81,46.3Z"/><path d="M51.05,53.35q3.45,4.32,6,4.32,4.11,0,8.86-6.55A72,72,0,0,0,72.65,39l2.73-6.62L64.8,40.61c-3.27,2.54-5.88,3.81-7.85,3.81a3.17,3.17,0,0,1-2.52-1.08,3.63,3.63,0,0,1-.93-2.44q0-3.1,5.32-10.19t7.78-7.09c1.63,0,2.45.55,2.45,1.65q0,.64-6.37,7.45T56.3,41.9c0,.63.41.94,1.23.94q2.3,0,9.25-5.4a117.24,117.24,0,0,0,10.47-8.93c.53-.62,1.28-1.56,2.24-2.81a4,4,0,0,1,3-1.58c1.1,0,1.66.53,1.66,1.58a46,46,0,0,1-3.24,5.12c-2.16,3.21-3.29,4.92-3.39,5.11q-2.24,4.32-6.84,12.6-7,11.24-14,11.23a5.22,5.22,0,0,1-4-2A6.27,6.27,0,0,1,51.05,53.35Z"/><path d="M95,43.92a10,10,0,0,1-5.15,1.22,5.66,5.66,0,0,1-4.68-2,17.48,17.48,0,0,1-2.77-6.41c-.87.86-1.47,1.3-1.8,1.3s-.36-.17-.36-.51a1.18,1.18,0,0,1,.36-.86,107.25,107.25,0,0,1,8.06-8.5l9.07-8.49Q101.59,16,102.31,16c1.54,0,2.3.58,2.3,1.73a2.6,2.6,0,0,1-.68,1.69c-.46.56-.79,1-1,1.3s-.44.61-.68.9c-.87,1.49-1.74,4.56-2.63,9.22s-1.57,7.89-2,9.72q6-.07,12.31-7.78Q110.59,32,111,32c.24,0,.36.16.36.47a2.34,2.34,0,0,1-.65,1.26,29.13,29.13,0,0,1-7.77,6.84,23.53,23.53,0,0,1-5.62,1.8Zm-9.72-8a5.27,5.27,0,0,0,1.62,4,5.1,5.1,0,0,0,3.63,1.55,5.16,5.16,0,0,0,3.1-.79q1.44-.8,2.84-6.62a61,61,0,0,0,1.69-10.3l.29-2.45A70.38,70.38,0,0,0,90,28.94q-4.5,4.68-4.64,6.2A4.53,4.53,0,0,0,85.25,35.93Z"/><path d="M113,45.94a4.63,4.63,0,0,1-1.44-.22Q107,44.43,107,40.54q0-5,6.34-11.67t11.37-6.62a4,4,0,0,1,2.7.9,3,3,0,0,1,1,2.45,6.77,6.77,0,0,1-.94,3.24,3,3,0,0,1-2.81,1.69c-1.25,0-1.87-.39-1.87-1.15a5.5,5.5,0,0,1,1-2.42,14.73,14.73,0,0,0,1-1.72c0-.08-.07-.11-.21-.11-1.35.14-3.18,1.1-5.51,2.88a24.14,24.14,0,0,0-4.79,4.46l-2.81,4.11a8.27,8.27,0,0,0-1,2.73,12.68,12.68,0,0,0-.32,2.38,2.88,2.88,0,0,0,.9,1.8,3.25,3.25,0,0,0,2.55,1q3.6,0,8.93-4.22a45.9,45.9,0,0,0,8.21-8,1.09,1.09,0,0,1,.86-.44c.34,0,.51.1.51.29a1.26,1.26,0,0,1-.36.72A42.79,42.79,0,0,1,122.22,42Q116.72,45.94,113,45.94Z"/><path d="M146.73,29.74q0,2.52-4.82,8.42-5.68,7-9.72,7H131a3.27,3.27,0,0,1-2.95-1.94,5.51,5.51,0,0,1-.87-3q0-4.32,6.3-12.14t10.19-7.81q3.67,0,3.67,3.89a12.16,12.16,0,0,1-.36,2.59c0,.15.51.22,1.37.22a10.12,10.12,0,0,0,4-1.37c0,.82-1.94,2-5.69,3.53A2.59,2.59,0,0,1,146.73,29.74ZM142.05,26q-2.45,0-6.94,5.76c-3,3.84-4.5,6.67-4.5,8.5s.57,2.73,1.72,2.73q3.1,0,7.85-5.61c3.17-3.75,4.75-6.43,4.75-8.07A10.57,10.57,0,0,1,142.05,26Z"/><path d="M171.86,23.18q8.07-13.09,11.23-13.1a4.65,4.65,0,0,1,1.41.32c.6.22.9.54.9,1a1.9,1.9,0,0,1-.36.93q-5.76,7.07-8.57,10.59-8.5,10.73-9.36,15.4a9.32,9.32,0,0,0-.22,2q0,3.24,2.67,3.24,5.33,0,13.89-9.86a2.77,2.77,0,0,1,1.23-.83c.33-.07.5,0,.5.25a1.41,1.41,0,0,1-.43.86q-8.35,10-14.83,11.16a5.19,5.19,0,0,1-1,.08,3.86,3.86,0,0,1-3.35-1.55,5.64,5.64,0,0,1-1.12-3.35,14.58,14.58,0,0,1,.8-4.46l-5.84,5.83q-4,3.68-6.22,3.67a5.83,5.83,0,0,1-3.78-1.22,4.54,4.54,0,0,1-1.8-3.82q0-5.25,7.34-12.56t13.46-7.31a3.26,3.26,0,0,1,2.81,1.08A5.47,5.47,0,0,1,171.86,23.18Zm-21.24,18c0,1.73.6,2.6,1.8,2.6q3.09,0,10.3-8.5Q164,33.77,171.36,24a1.85,1.85,0,0,0-1.73-.87q-4.47,0-11.74,6.81T150.62,41.18Z"/><path d="M184.39,45.79q-3.67,0-3.67-4.75,0-3.88,4.24-10.76t6.84-7a3.11,3.11,0,0,1,1.62.57c.6.39.9.77.9,1.16-.24.33-.52.7-.86,1.11s-.7.85-1.08,1.33-.91,1.17-1.58,2.06-1.32,1.74-2,2.55q-5.4,7-5.4,9.61c0,1.76.6,2.63,1.8,2.63a8.55,8.55,0,0,0,4.11-1.65,36.69,36.69,0,0,0,9.57-8.21c.87-1.11,1.45-1.66,1.77-1.66s.46.19.46.58-.55,1.15-1.65,2.3l-2.63,2.74c-.65.67-1.09,1.11-1.33,1.33s-.69.62-1.33,1.22a16.66,16.66,0,0,1-1.48,1.26q-.51.36-1.44,1.08a8.82,8.82,0,0,1-1.66,1l-1.65.75A9,9,0,0,1,184.39,45.79Zm15.08-29.48a1.94,1.94,0,0,1,1,1.62,2,2,0,0,1-.9,1.62,3.23,3.23,0,0,1-2,.68,2.92,2.92,0,0,1-2-.79,2.36,2.36,0,0,1-.9-1.8c0-1.34.92-2,2.74-2A3.49,3.49,0,0,1,199.47,16.31Z"/><path d="M209.66,22.25c1.3,0,1.94.5,1.94,1.51a1.91,1.91,0,0,1-.21.86q-6.48,9-7.78,13.61Q220.4,21.46,224,21.46a3.2,3.2,0,0,1,.65-.08q2,0,2,1.8a2,2,0,0,1-.14.72q-.15.36-2.88,3.89a68.28,68.28,0,0,0-5.37,7.2q-2.19,3.46-2.19,5.76c0,1.54.33,2.31,1,2.31q3.16,0,11-8.72a5.22,5.22,0,0,0,.51-.64c.72-.87,1.15-1.3,1.29-1.3s.22.24.22.72a3.29,3.29,0,0,1-1,1.87q-8.92,10.15-12.67,10.15-3.52,0-3.53-3.88c0-2.6,1-5.57,2.88-8.93l4.61-7.49a56,56,0,0,0-8.71,7.88q-3.83,4.29-7,8.32t-3.64,4a1.94,1.94,0,0,1-1.69-.9,3.85,3.85,0,0,1-.61-2.23,9.88,9.88,0,0,1,.93-3.56q.94-2.24,2.38-5.4l-4.32,4.53c-1.05,1.06-1.72,1.59-2,1.59s-.4-.16-.4-.47a1.65,1.65,0,0,1,.58-1.05,60,60,0,0,0,4.61-5.11q1.88-2.45,7.7-9.36A1.79,1.79,0,0,1,209.66,22.25Z"/><path d="M251.13,23l1-.22a2,2,0,0,1,1.48.58,1.58,1.58,0,0,1,.54.9,3.86,3.86,0,0,1-.08.72A26.23,26.23,0,0,1,252,28.66c-1.68,2.92-3.08,5.4-4.18,7.41Q242,46.95,238.89,51q-6.62,8.77-12.6,8.78A4.71,4.71,0,0,1,222.66,58,6.12,6.12,0,0,1,221,54.07c.14-.57.36-.86.64-.86s.27.17.36.5a5.48,5.48,0,0,0,1.37,2.88,2.94,2.94,0,0,0,2,1q4.09,0,8.78-5.4a60.63,60.63,0,0,0,6.84-10.51l3.6-7.13L239.25,40q-5.17,5-7.09,5a6,6,0,0,1-3.64-1.3,4.53,4.53,0,0,1-1.94-3.81q0-5.26,7.38-12.53t13.43-7.27c1.63,0,2.69.53,3.17,1.58.14.39.26.71.36,1S251.08,23,251.13,23ZM229.6,40.75c0,1.73.6,2.59,1.8,2.59q4.18,0,11.38-9.14l7.63-10.51a1.76,1.76,0,0,0-1.8-1q-4.46,0-11.73,6.88T229.6,40.75Z"/><path d="M264.85,41.18a2,2,0,0,1,1,1.62,2,2,0,0,1-.9,1.59,3.23,3.23,0,0,1-2,.68,3,3,0,0,1-2-.75,2.27,2.27,0,0,1-.9-1.77c0-1.39.91-2.09,2.74-2.09A3.39,3.39,0,0,1,264.85,41.18Z"/><path d="M275.47,45.94a4.63,4.63,0,0,1-1.44-.22q-4.61-1.29-4.61-5.18,0-5,6.34-11.67t11.37-6.62a4,4,0,0,1,2.7.9,3,3,0,0,1,1.05,2.45,6.77,6.77,0,0,1-.94,3.24,3,3,0,0,1-2.81,1.69c-1.25,0-1.87-.39-1.87-1.15a5.5,5.5,0,0,1,1-2.42,14.73,14.73,0,0,0,1-1.72c0-.08-.07-.11-.21-.11-1.35.14-3.18,1.1-5.51,2.88a24.14,24.14,0,0,0-4.79,4.46l-2.81,4.11a8.27,8.27,0,0,0-1,2.73,12.68,12.68,0,0,0-.32,2.38,2.88,2.88,0,0,0,.9,1.8,3.25,3.25,0,0,0,2.55,1q3.6,0,8.93-4.22a45.9,45.9,0,0,0,8.21-8,1.09,1.09,0,0,1,.86-.44c.34,0,.51.1.51.29a1.26,1.26,0,0,1-.36.72A42.79,42.79,0,0,1,284.65,42Q279.15,45.94,275.47,45.94Z"/><path d="M302,22.25c1.3,0,2,.5,2,1.51a1.93,1.93,0,0,1-.22.86q-6.48,9-7.77,13.61,16.77-16.77,20.37-16.77a3.28,3.28,0,0,1,.65-.08c1.34,0,2,.6,2,1.8a1.86,1.86,0,0,1-.15.72q-.15.36-2.88,3.89a66.75,66.75,0,0,0-5.36,7.2q-2.2,3.46-2.2,5.76c0,1.54.34,2.31,1,2.31q3.17,0,11-8.72a6.94,6.94,0,0,0,.5-.64c.72-.87,1.15-1.3,1.3-1.3s.21.24.21.72a3.29,3.29,0,0,1-1,1.87q-8.92,10.15-12.67,10.15-3.53,0-3.53-3.88c0-2.6,1-5.57,2.88-8.93l4.61-7.49A56.45,56.45,0,0,0,304,32.72Q300.15,37,297,41t-3.63,4a2,2,0,0,1-1.7-.9,3.85,3.85,0,0,1-.61-2.23,9.73,9.73,0,0,1,.94-3.56q.93-2.24,2.37-5.4l-4.32,4.53q-1.57,1.59-2,1.59c-.26,0-.39-.16-.39-.47a1.63,1.63,0,0,1,.57-1.05,58.39,58.39,0,0,0,4.61-5.11q1.88-2.45,7.71-9.36A1.77,1.77,0,0,1,302,22.25Z"/></g></g></svg>